<?xml version="1.0" standalone="no"?>
<!DOCTYPE svg PUBLIC "-//W3C//DTD SVG 20010904//EN"
 "http://www.w3.org/TR/2001/REC-SVG-20010904/DTD/svg10.dtd">
<svg version="1.0" xmlns="http://www.w3.org/2000/svg"
 width="500.000000pt" height="500.000000pt" viewBox="0 0 500.000000 500.000000"
 preserveAspectRatio="xMidYMid meet">

<g transform="translate(0.000000,500.000000) scale(0.100000,-0.100000)"
fill="#000000" stroke="none">
<path d="M1768 3983 c-60 -63 -130 -172 -158 -251 -19 -53 -22 -74 -16 -138 9
-116 30 -151 162 -279 l116 -112 -35 -49 c-56 -78 -106 -186 -129 -275 -29
-118 -22 -289 16 -404 121 -360 484 -573 877 -516 91 14 88 12 203 65 191 88
336 237 411 423 28 68 36 71 138 48 78 -18 137 -48 137 -71 0 -17 -41 -100
-64 -129 -16 -20 -16 -20 -37 5 -20 24 -21 43 -4 98 6 17 4 21 -7 17 -21 -8
-38 -49 -38 -90 0 -48 50 -105 93 -105 40 0 116 50 162 106 35 42 37 49 33 98
-2 29 -18 81 -35 118 -55 117 -135 185 -257 218 l-61 17 -17 85 c-61 309 -293
540 -608 604 -99 20 -281 15 -369 -10 l-55 -15 -138 69 c-224 113 -280 167
-264 254 6 32 59 123 80 138 12 8 65 -60 66 -83 0 -9 -9 -27 -19 -40 l-19 -24
-11 28 c-6 16 -11 42 -11 59 0 26 -2 29 -15 18 -9 -7 -15 -29 -15 -54 0 -50
35 -92 68 -82 32 11 72 77 72 120 0 34 -9 49 -66 112 -59 67 -69 74 -103 74
-31 0 -44 -8 -83 -47z m73 -64 c16 -30 -3 -45 -25 -20 -10 11 -15 25 -11 30
10 17 23 13 36 -10z m-37 -84 c-21 -70 -25 -113 -15 -153 17 -60 110 -136 269
-217 256 -130 374 -254 417 -436 26 -112 15 -257 -31 -418 -28 -98 -136 -294
-267 -485 l-38 -56 -40 23 c-56 31 -146 103 -158 126 -9 16 -2 25 49 65 142
112 273 324 311 505 20 95 -15 265 -75 359 -38 61 -193 199 -291 259 -102 63
-127 84 -156 131 -11 17 -25 30 -30 27 -17 -11 -69 39 -86 83 -20 54 -12 82
55 191 l45 74 24 -29 c15 -19 21 -36 17 -49z m1549 -1226 c29 -12 78 -40 109
-61 32 -21 62 -38 66 -38 17 0 44 -39 52 -73 l7 -34 -28 11 c-16 6 -29 18 -29
27 0 29 -75 80 -141 95 -90 21 -253 21 -316 0 -105 -35 -257 -156 -346 -275
-39 -53 -77 -151 -77 -202 0 -23 -6 -28 -42 -37 -24 -6 -68 -14 -99 -17 l-56
-6 -13 46 c-11 40 -11 48 1 56 8 5 19 9 24 9 6 0 11 9 11 20 0 26 -18 25 -43
-2 -30 -34 -34 -55 -18 -94 l15 -36 -33 7 c-17 4 -34 9 -36 11 -8 7 21 89 59
170 26 53 61 104 105 152 172 185 352 275 585 292 132 10 177 6 243 -21z m179
-262 l-23 -22 12 33 c8 24 15 30 22 23 8 -8 5 -17 -11 -34z"/>
<path d="M2232 3214 c3 -27 31 -54 44 -42 3 4 -1 14 -9 23 -9 8 -14 22 -11 30
4 10 0 15 -11 15 -12 0 -15 -7 -13 -26z"/>
<path d="M2326 3173 c-12 -12 -6 -51 9 -63 13 -11 18 -11 28 0 9 10 9 13 0 17
-7 3 -13 13 -13 23 0 20 -13 33 -24 23z"/>
<path d="M2332 3048 c-16 -16 -15 -53 3 -68 21 -18 38 -3 24 22 -8 15 -8 22 1
28 7 4 9 13 6 19 -9 14 -19 14 -34 -1z"/>
<path d="M2374 2954 c-10 -39 7 -80 31 -76 28 5 30 9 11 27 -20 21 -20 34 1
57 15 17 15 18 -10 18 -20 0 -28 -6 -33 -26z"/>
<path d="M2347 2853 c-13 -12 -8 -83 6 -83 9 0 12 11 9 35 -3 27 -1 35 11 35
9 0 19 5 22 10 7 11 -38 14 -48 3z"/>
<path d="M2372 2803 c2 -10 10 -18 18 -18 8 0 16 8 18 18 2 12 -3 17 -18 17
-15 0 -20 -5 -18 -17z"/>
<path d="M2342 2714 c-30 -20 -31 -79 -2 -94 26 -14 45 -3 29 16 -10 12 -9 13
5 8 18 -7 32 18 21 36 -5 8 -14 6 -28 -7 -20 -17 -20 -17 -14 0 4 10 7 21 7
23 0 2 7 4 16 4 9 0 14 5 12 12 -7 19 -22 19 -46 2z"/>
<path d="M2294 2602 c-33 -22 -48 -112 -18 -112 10 0 14 6 10 15 -3 10 1 15
14 15 27 0 36 20 12 27 -23 6 -19 33 5 33 8 0 13 5 11 12 -5 15 -20 20 -34 10z"/>
<path d="M2277 2458 c-26 -14 -39 -55 -27 -79 16 -29 28 -23 26 14 -1 28 2 32
27 35 31 4 35 17 9 31 -11 6 -24 6 -35 -1z"/>
<path d="M2153 2405 c-30 -21 -45 -51 -38 -75 9 -30 37 -26 29 4 -7 27 17 56
48 56 11 0 18 5 16 13 -7 18 -30 19 -55 2z"/>
<path d="M2287 2413 c-12 -11 -8 -23 8 -23 8 0 15 7 15 15 0 16 -12 20 -23 8z"/>
<path d="M2154 2359 c-3 -6 -2 -15 4 -21 13 -13 32 -2 32 18 0 16 -26 19 -36
3z"/>
<path d="M2111 2234 c-31 -26 -40 -64 -22 -93 13 -20 33 -4 22 17 -18 35 6 62
57 62 36 0 39 5 18 26 -21 20 -40 17 -75 -12z"/>
<path d="M2136 2194 c-21 -21 -20 -34 3 -34 22 0 45 25 36 40 -9 14 -21 13
-39 -6z"/>
<path d="M2777 2483 c-35 -6 -61 -44 -53 -78 9 -35 26 -31 26 5 0 24 6 33 28
41 19 8 32 7 45 -1 24 -14 35 -4 21 18 -12 19 -25 21 -67 15z"/>
<path d="M2767 2423 c-13 -12 -7 -23 12 -23 10 0 21 7 25 15 5 15 -24 22 -37
8z"/>
<path d="M2588 2373 c-18 -20 -21 -33 -19 -75 1 -18 7 -28 16 -28 12 0 14 8 9
40 -6 36 -4 40 19 49 14 5 35 7 47 4 17 -4 21 -2 18 8 -7 22 -71 23 -90 2z"/>
<path d="M2617 2334 c-13 -13 -7 -24 14 -24 11 0 19 5 17 12 -5 14 -22 21 -31
12z"/>
<path d="M2545 2225 c-25 -25 -33 -68 -16 -94 13 -20 32 -3 25 23 -3 14 2 31
14 46 17 21 25 22 59 8 3 -2 8 7 9 20 3 19 0 22 -32 22 -24 0 -43 -8 -59 -25z"/>
<path d="M2573 2183 c-18 -7 -16 -20 3 -27 21 -8 34 1 27 19 -5 16 -10 17 -30
8z"/>
<path d="M2452 2058 c2 -12 10 -23 18 -23 22 0 19 39 -3 43 -15 3 -18 -1 -15
-20z"/>
</g>
</svg>
